<svg width="16" height="16" viewBox="0 0 16 16" fill="none" xmlns="http://www.w3.org/2000/svg">
<mask id="mask0_49_71" style="mask-type:luminance" maskUnits="userSpaceOnUse" x="0" y="0" width="16" height="16">
<path d="M16 0H0V16H16V0Z" fill="white"/>
</mask>
<g mask="url(#mask0_49_71)">
<path d="M9.42818 6.23729C9.43853 6.19584 9.44376 6.13925 9.44376 6.06643C9.44376 5.95793 9.42052 5.85977 9.37404 5.77156C9.32756 5.68357 9.26557 5.60876 9.1882 5.54672C9.11078 5.48456 9.02305 5.43674 8.92513 5.40312C8.82705 5.3695 8.72886 5.35282 8.63094 5.35282C8.49677 5.35282 8.36768 5.39141 8.24382 5.46901C8.12 5.54672 8.02454 5.66817 7.95755 5.83372L6.88143 8.56581L5.9371 5.83372C5.88027 5.66817 5.78896 5.54672 5.66222 5.46901C5.53586 5.39145 5.40558 5.35282 5.27137 5.35282C5.16829 5.35282 5.06887 5.37093 4.97352 5.407C4.87787 5.44333 4.79157 5.49243 4.71415 5.55417C4.63674 5.61633 4.57479 5.69156 4.52831 5.77947C4.48198 5.86738 4.45863 5.96309 4.45863 6.06643C4.45863 6.12347 4.46513 6.1766 4.47802 6.2258C4.49091 6.27482 4.50753 6.32249 4.52831 6.36921L6.17716 10.4128C6.23918 10.5526 6.31779 10.6638 6.41344 10.7466C6.50867 10.8292 6.65719 10.8703 6.85843 10.8703C7.05947 10.8703 7.21172 10.8292 7.31503 10.7466C7.41819 10.6638 7.50322 10.555 7.5704 10.4202L9.37408 6.36921C9.39978 6.32249 9.41767 6.27893 9.42821 6.23733L9.42818 6.23729ZM11.0924 8.59665L11.4873 7.61098L11.82 8.59653L11.0924 8.59665ZM13.8636 9.85377L12.1839 5.81023C12.1271 5.671 12.0484 5.55967 11.9478 5.47646C11.8474 5.39424 11.6988 5.35278 11.5028 5.35278C11.2963 5.35278 11.1439 5.39424 11.0459 5.47646C10.9479 5.55971 10.868 5.66814 10.8063 5.80274L8.96372 9.85384C8.92763 9.92109 8.90974 10.0221 8.90974 10.1566C8.90974 10.2652 8.93279 10.3636 8.97942 10.4514C9.02571 10.5396 9.08777 10.6143 9.16507 10.6764C9.24252 10.7385 9.32887 10.7866 9.42425 10.8199C9.5199 10.8536 9.61906 10.8703 9.72237 10.8703C9.85142 10.8703 9.97508 10.8306 10.0939 10.7501C10.2126 10.6702 10.3082 10.5472 10.3804 10.3815L10.6205 9.78423L12.2303 9.78404L12.447 10.3815C12.5606 10.7076 12.7824 10.8703 13.1128 10.8703C13.2108 10.8703 13.3089 10.8522 13.407 10.8161C13.5049 10.7801 13.5914 10.7309 13.6664 10.6687C13.741 10.6066 13.8018 10.5318 13.8482 10.4436C13.8946 10.3558 13.9179 10.2599 13.9179 10.1566C13.9179 10.0271 13.8998 9.92624 13.8636 9.85377ZM3.29763 6.89691C3.53492 6.89691 3.71958 6.82199 3.85112 6.67203C3.98282 6.522 4.04843 6.34346 4.04843 6.1365C4.04843 5.92939 3.98282 5.75085 3.85112 5.60093C3.71957 5.45079 3.5349 5.37601 3.29763 5.37601H0.743335C0.247794 5.37601 9.15527e-05 5.62936 9.15527e-05 6.1365V10.0791C9.15527e-05 10.5861 0.247794 10.8395 0.743335 10.8395H3.29763C3.53492 10.8395 3.71958 10.7646 3.85112 10.6143C3.98282 10.4646 4.04843 10.286 4.04843 10.0791C4.04843 9.87203 3.98282 9.69477 3.85112 9.54719C3.71957 9.40002 3.5349 9.32615 3.29763 9.32615H1.49402V8.79852H2.99576C3.21254 8.79852 3.38143 8.72989 3.50279 8.59292C3.62405 8.45553 3.68452 8.29375 3.68452 8.10765C3.68452 7.92128 3.62406 7.75962 3.50279 7.62265C3.38143 7.48564 3.21254 7.41693 2.99576 7.41693H1.49402V6.89691H3.29763Z" fill="#ACC0DA"/>
<path d="M15.3818 5.21034C14.2689 2.09141 11.1237 0.728326 10.8618 0.620972C9.86547 0.2134 8.8364 0.0152801 7.82165 0.00177035C7.7741 0.000652997 7.72631 0.000188644 7.67841 0C7.63062 0.000188644 7.58287 0.000638487 7.53527 0.00177035C6.5206 0.0152947 5.49154 0.213414 4.49503 0.620972C4.23339 0.728326 1.6884 1.81338 0.411804 4.31402C0.507946 4.29192 0.61143 4.27991 0.721023 4.27716C2.26244 1.92037 4.84544 0.532122 7.55859 0.472233C7.59845 0.471943 7.63862 0.47119 7.67852 0.471536C7.71838 0.47119 7.7584 0.471943 7.79841 0.472233C10.915 0.541188 13.8716 2.35175 15.2601 5.38331C15.6853 6.31096 15.9253 7.27558 16 8.23689C16 7.09931 15.7468 6.23359 15.3818 5.21034H15.3818Z" fill="#ACC0DA"/>
<path d="M6.76271 0.942976C5.67124 1.10674 4.67138 1.49775 3.80048 2.05989C4.73406 1.53743 5.7946 1.20805 6.93316 1.13438C11.0345 0.867228 14.5765 3.98425 14.8431 8.09676C15.0991 12.0553 12.2272 15.4906 8.35496 15.9818C8.31879 15.9876 8.28255 15.9947 8.24615 16C8.49467 15.9887 8.74473 15.966 8.99583 15.9279C13.1233 15.3099 15.9691 11.4532 15.3527 7.31591C14.7359 3.17755 10.89 0.32415 6.76271 0.942976Z" fill="#ACC0DA"/>
</g>
</svg>
