<?xml version="1.0" encoding="UTF-8"?>
<!DOCTYPE svg PUBLIC "-//W3C//DTD SVG 1.1//EN" "http://www.w3.org/Graphics/SVG/1.1/DTD/svg11.dtd">
<!-- Creator: CorelDRAW 2020 (64-Bit) -->
<svg xmlns="http://www.w3.org/2000/svg" xml:space="preserve" width="110.023mm" height="112.44mm" version="1.1" style="shape-rendering:geometricPrecision; text-rendering:geometricPrecision; image-rendering:optimizeQuality; fill-rule:evenodd; clip-rule:evenodd"
viewBox="0 0 10789.02 11026.07"
 xmlns:xlink="http://www.w3.org/1999/xlink"
 xmlns:xodm="http://www.corel.com/coreldraw/odm/2003">
 <defs>
  <style type="text/css">
   <![CDATA[
    .fil0 {fill:#B68157;fill-rule:nonzero}
   ]]>
  </style>
 </defs>
 <g id="Слой_x0020_1">
  <metadata id="CorelCorpID_0Corel-Layer"/>
  <path class="fil0" d="M6357.53 4298.32c6.98,-28.57 10.49,-67.56 10.49,-117.75 0,-74.77 -15.66,-142.42 -47,-203.21 -31.34,-60.62 -73.16,-112.17 -125.32,-154.94 -52.2,-42.83 -111.37,-75.79 -177.4,-98.94 -66.14,-23.19 -132.34,-34.68 -198.37,-34.68 -90.48,0 -177.53,26.61 -261.03,80.06 -83.5,53.57 -147.87,137.27 -193.05,251.35l-725.63 1882.76 -636.8 -1882.76c-38.31,-114.08 -99.88,-197.78 -185.35,-251.35 -85.2,-53.44 -173.05,-80.06 -263.56,-80.06 -69.51,0 -136.54,12.49 -200.84,37.34 -64.5,25.05 -122.7,58.86 -174.9,101.42 -52.2,42.84 -93.98,94.67 -125.32,155.26 -31.22,60.58 -46.99,126.53 -46.99,197.76 0,39.29 4.39,75.92 13.1,109.81 8.68,33.79 19.89,66.63 33.89,98.83l1111.84 2786.57c41.83,96.32 94.84,172.96 159.34,229.99 64.21,56.92 164.38,85.31 300.07,85.31 135.57,0 238.23,-28.39 307.89,-85.31 69.57,-57.03 126.9,-132.02 172.2,-224.91l1216.24 -2791.65c17.35,-32.19 29.41,-62.21 36.51,-90.88zm1122.22 1625.9l266.23 -679.26 224.4 679.18 -490.63 0.08zm1868.66 866.33l-1132.66 -2786.54c-38.32,-95.95 -91.36,-172.65 -159.18,-230 -67.75,-56.67 -167.92,-85.23 -300.1,-85.23 -139.21,0 -242.03,28.56 -308.06,85.23 -66.14,57.36 -120,132.1 -161.59,224.85l-1242.5 2791.72c-24.33,46.34 -36.38,115.93 -36.38,208.67 0,74.79 15.52,142.63 46.98,203.13 31.22,60.75 73.05,112.26 125.17,155.06 52.25,42.83 110.45,75.96 174.78,98.9 64.5,23.2 131.37,34.72 201.04,34.72 87.01,0 170.39,-27.34 250.53,-82.8 80.04,-55.06 144.49,-139.86 193.18,-254.05l161.87 -411.59 1085.56 -0.13 146.14 411.72c76.6,224.72 226.12,336.85 448.95,336.85 66.07,0 132.23,-12.5 198.38,-37.34 66.02,-24.85 124.36,-58.69 174.86,-101.57 50.38,-42.84 91.36,-94.35 122.63,-155.14 31.26,-60.54 46.99,-126.62 46.99,-197.77 0,-89.23 -12.22,-158.76 -36.59,-208.69zm-7124.82 -2037.68c160.01,0 284.53,-51.63 373.23,-154.97 88.82,-103.39 133.04,-226.42 133.04,-369.05 0,-142.71 -44.22,-265.74 -133.04,-369.07 -88.71,-103.47 -213.23,-154.99 -373.23,-154.99l-1722.4 0c-334.15,0 -501.18,174.58 -501.18,524.06l0 2716.95c0,349.44 167.03,524.01 501.18,524.01l1722.4 0c160.01,0 284.53,-51.59 373.23,-155.17 88.82,-103.18 133.04,-226.21 133.04,-368.84 0,-142.68 -44.22,-264.82 -133.04,-366.54 -88.71,-101.42 -213.23,-152.32 -373.23,-152.32l-1216.2 0 0 -363.59 1012.65 0c146.18,0 260.06,-47.31 341.9,-141.7 81.76,-94.68 122.54,-206.17 122.54,-334.41 0,-128.42 -40.77,-239.84 -122.54,-334.22 -81.84,-94.42 -195.72,-141.79 -341.9,-141.79l-1012.65 0 0 -358.36 1216.2 0z"/>
  <path class="fil0" d="M10372.18 3590.6c-750.43,-2149.35 -2871.36,-3088.69 -3047.91,-3162.67 -671.86,-280.87 -1365.77,-417.4 -2050.02,-426.71 -32.07,-0.77 -64.3,-1.09 -96.61,-1.22 -32.22,0.13 -64.42,0.44 -96.52,1.22 -684.2,9.32 -1378.12,145.85 -2050.09,426.71 -176.43,73.98 -1892.54,821.72 -2753.37,2544.99 64.83,-15.24 134.61,-23.51 208.51,-25.41 1039.4,-1624.13 2781.15,-2580.81 4610.69,-2622.08 26.87,-0.2 53.97,-0.72 80.87,-0.48 26.88,-0.24 53.86,0.28 80.84,0.48 2101.53,47.52 4095.23,1295.23 5031.53,3384.37 286.72,639.26 448.59,1304.02 498.93,1966.48 0,-783.95 -170.71,-1380.54 -416.84,-2085.68z"/>
  <path class="fil0" d="M4560.2 649.8c-735.99,112.86 -1410.22,382.31 -1997.49,769.7 629.54,-360.04 1344.68,-587.03 2112.41,-637.8 2765.6,-184.1 5154.04,1963.93 5333.82,4797.98 172.6,2727.91 -1763.95,5095.34 -4375.08,5433.8 -24.37,4 -48.82,8.88 -73.37,12.59 167.6,-7.83 336.2,-23.45 505.54,-49.7 2783.22,-425.92 4702.18,-3083.64 4286.51,-5934.79 -415.88,-2851.87 -3009.19,-4818.23 -5792.33,-4391.78z"/>
 </g>
</svg>
