<svg width="32" height="32" viewBox="0 0 32 32" fill="none" xmlns="http://www.w3.org/2000/svg">
<path d="M29.6 3.19998H25.6V2.39998C25.6 1.95798 25.242 1.59998 24.8 1.59998C24.358 1.59998 24 1.95798 24 2.39998V3.19998H8V2.39998C8 1.95798 7.642 1.59998 7.2 1.59998C6.758 1.59998 6.4 1.95798 6.4 2.39998V3.19998H2.4C1.077 3.19998 0 4.27698 0 5.59998V28C0 29.323 1.077 30.4 2.4 30.4H29.6C30.923 30.4 32 29.323 32 28V5.59998C32 4.27698 30.923 3.19998 29.6 3.19998ZM2.4 4.79998H6.4V7.19998C6.4 7.64198 6.758 7.99998 7.2 7.99998C7.642 7.99998 8 7.64198 8 7.19998V4.79998H24V7.19998C24 7.64198 24.358 7.99998 24.8 7.99998C25.242 7.99998 25.6 7.64198 25.6 7.19998V4.79998H29.6C30.042 4.79998 30.4 5.15798 30.4 5.59998V9.59998H1.6V5.59998C1.6 5.15798 1.958 4.79998 2.4 4.79998ZM29.6 28.8H2.4C1.958 28.8 1.6 28.442 1.6 28V11.2H30.4V28C30.4 28.442 30.042 28.8 29.6 28.8ZM12 16H10.4C9.958 16 9.6 15.642 9.6 15.2C9.6 14.758 9.958 14.4 10.4 14.4H12C12.442 14.4 12.8 14.758 12.8 15.2C12.8 15.642 12.442 16 12 16ZM16.8 16H15.2C14.758 16 14.4 15.642 14.4 15.2C14.4 14.758 14.758 14.4 15.2 14.4H16.8C17.242 14.4 17.6 14.758 17.6 15.2C17.6 15.642 17.242 16 16.8 16ZM21.6 16H20C19.558 16 19.2 15.642 19.2 15.2C19.2 14.758 19.558 14.4 20 14.4H21.6C22.042 14.4 22.4 14.758 22.4 15.2C22.4 15.642 22.042 16 21.6 16ZM26.4 16H24.8C24.358 16 24 15.642 24 15.2C24 14.758 24.358 14.4 24.8 14.4H26.4C26.842 14.4 27.2 14.758 27.2 15.2C27.2 15.642 26.842 16 26.4 16ZM7.2 19.2H5.6C5.158 19.2 4.8 18.842 4.8 18.4C4.8 17.958 5.158 17.6 5.6 17.6H7.2C7.642 17.6 8 17.958 8 18.4C8 18.842 7.642 19.2 7.2 19.2ZM12 19.2H10.4C9.958 19.2 9.6 18.842 9.6 18.4C9.6 17.958 9.958 17.6 10.4 17.6H12C12.442 17.6 12.8 17.958 12.8 18.4C12.8 18.842 12.442 19.2 12 19.2ZM16.8 19.2H15.2C14.758 19.2 14.4 18.842 14.4 18.4C14.4 17.958 14.758 17.6 15.2 17.6H16.8C17.242 17.6 17.6 17.958 17.6 18.4C17.6 18.842 17.242 19.2 16.8 19.2ZM21.6 19.2H20C19.558 19.2 19.2 18.842 19.2 18.4C19.2 17.958 19.558 17.6 20 17.6H21.6C22.042 17.6 22.4 17.958 22.4 18.4C22.4 18.842 22.042 19.2 21.6 19.2ZM26.4 19.2H24.8C24.358 19.2 24 18.842 24 18.4C24 17.958 24.358 17.6 24.8 17.6H26.4C26.842 17.6 27.2 17.958 27.2 18.4C27.2 18.842 26.842 19.2 26.4 19.2ZM7.2 22.4H5.6C5.158 22.4 4.8 22.042 4.8 21.6C4.8 21.158 5.158 20.8 5.6 20.8H7.2C7.642 20.8 8 21.158 8 21.6C8 22.042 7.642 22.4 7.2 22.4ZM12 22.4H10.4C9.958 22.4 9.6 22.042 9.6 21.6C9.6 21.158 9.958 20.8 10.4 20.8H12C12.442 20.8 12.8 21.158 12.8 21.6C12.8 22.042 12.442 22.4 12 22.4ZM16.8 22.4H15.2C14.758 22.4 14.4 22.042 14.4 21.6C14.4 21.158 14.758 20.8 15.2 20.8H16.8C17.242 20.8 17.6 21.158 17.6 21.6C17.6 22.042 17.242 22.4 16.8 22.4ZM21.6 22.4H20C19.558 22.4 19.2 22.042 19.2 21.6C19.2 21.158 19.558 20.8 20 20.8H21.6C22.042 20.8 22.4 21.158 22.4 21.6C22.4 22.042 22.042 22.4 21.6 22.4ZM26.4 22.4H24.8C24.358 22.4 24 22.042 24 21.6C24 21.158 24.358 20.8 24.8 20.8H26.4C26.842 20.8 27.2 21.158 27.2 21.6C27.2 22.042 26.842 22.4 26.4 22.4ZM7.2 25.6H5.6C5.158 25.6 4.8 25.242 4.8 24.8C4.8 24.358 5.158 24 5.6 24H7.2C7.642 24 8 24.358 8 24.8C8 25.242 7.642 25.6 7.2 25.6ZM12 25.6H10.4C9.958 25.6 9.6 25.242 9.6 24.8C9.6 24.358 9.958 24 10.4 24H12C12.442 24 12.8 24.358 12.8 24.8C12.8 25.242 12.442 25.6 12 25.6ZM16.8 25.6H15.2C14.758 25.6 14.4 25.242 14.4 24.8C14.4 24.358 14.758 24 15.2 24H16.8C17.242 24 17.6 24.358 17.6 24.8C17.6 25.242 17.242 25.6 16.8 25.6ZM21.6 25.6H20C19.558 25.6 19.2 25.242 19.2 24.8C19.2 24.358 19.558 24 20 24H21.6C22.042 24 22.4 24.358 22.4 24.8C22.4 25.242 22.042 25.6 21.6 25.6ZM26.4 25.6H24.8C24.358 25.6 24 25.242 24 24.8C24 24.358 24.358 24 24.8 24H26.4C26.842 24 27.2 24.358 27.2 24.8C27.2 25.242 26.842 25.6 26.4 25.6Z" fill="#5BAEDC"/>
</svg>
