<svg width="32" height="32" viewBox="0 0 32 32" fill="none" xmlns="http://www.w3.org/2000/svg">
<g clip-path="url(#clip0_62_112)">
<path d="M27.314 4.686C24.292 1.664 20.274 0 16 0C11.05 0 6.43997 2.28 3.43497 6.091V4C3.43497 3.558 3.07697 3.2 2.63497 3.2C2.19297 3.2 1.83497 3.558 1.83497 4V8.755C1.83497 9.121 2.08297 9.44 2.43797 9.531C2.59297 9.571 2.74997 9.561 2.89197 9.513L7.45697 7.958C7.87497 7.816 8.09897 7.361 7.95597 6.944C7.81297 6.527 7.35897 6.302 6.94197 6.445L4.55797 7.258C7.25897 3.725 11.47 1.604 16.001 1.604C23.942 1.604 30.401 8.063 30.401 16.004C30.401 23.945 23.942 30.404 16.001 30.404C10.695 30.404 5.83497 27.5 3.31597 22.825C3.10597 22.436 2.62197 22.291 2.23297 22.5C1.84397 22.709 1.69897 23.194 1.90797 23.583C4.70597 28.777 10.108 32.004 16.002 32.004C20.276 32.004 24.293 30.34 27.316 27.318C30.339 24.296 32.002 20.278 32.002 16.004C32.002 11.73 30.338 7.713 27.316 4.69L27.314 4.686ZM16 16.8C15.866 16.8 15.733 16.766 15.611 16.699L8.41097 12.699C8.02497 12.485 7.88597 11.998 8.10097 11.611C8.31597 11.224 8.80197 11.086 9.18897 11.301L15.973 15.069L24.371 9.725C24.744 9.488 25.238 9.597 25.475 9.97C25.712 10.343 25.603 10.837 25.23 11.074L16.43 16.674C16.299 16.757 16.15 16.799 16.001 16.799L16 16.8Z" fill="#5BAEDC"/>
</g>
<defs>
<clipPath id="clip0_62_112">
<rect width="32" height="32" fill="white"/>
</clipPath>
</defs>
</svg>
