<svg xmlns="http://www.w3.org/2000/svg" width="32" height="32" fill="#B68157" viewBox="0 0 32 32"><title>pie-chart</title><path d="M13.6 32c-3.632 0-7.048-1.414-9.616-3.984s-3.984-5.984-3.984-9.616c0-3.632 1.414-7.048 3.984-9.616s5.984-3.984 9.616-3.984c0.442 0 0.8 0.358 0.8 0.8v12h12c0.442 0 0.8 0.358 0.8 0.8 0 3.632-1.414 7.048-3.984 9.616s-5.984 3.984-9.616 3.984zM12.8 6.426c-6.245 0.413-11.2 5.626-11.2 11.974 0 6.618 5.382 12 12 12 6.347 0 11.56-4.955 11.974-11.2h-11.974c-0.442 0-0.8-0.358-0.8-0.8v-11.974zM29.6 16h-12.8c-0.442 0-0.8-0.358-0.8-0.8v-12.8c0-0.442 0.358-0.8 0.8-0.8 3.632 0 7.048 1.414 9.616 3.984s3.984 5.984 3.984 9.616c0 0.442-0.358 0.8-0.8 0.8zM17.6 14.4h11.174c-0.395-5.981-5.194-10.778-11.174-11.174v11.174z"></path></svg>