<svg width="32" height="32" viewBox="0 0 32 32" fill="none" xmlns="http://www.w3.org/2000/svg">
<path d="M13.6 32C9.968 32 6.552 30.586 3.984 28.016C1.416 25.446 0 22.032 0 18.4C0 14.768 1.414 11.352 3.984 8.78398C6.554 6.21598 9.968 4.79998 13.6 4.79998C14.042 4.79998 14.4 5.15798 14.4 5.59998V17.6H26.4C26.842 17.6 27.2 17.958 27.2 18.4C27.2 22.032 25.786 25.448 23.216 28.016C20.646 30.584 17.232 32 13.6 32ZM12.8 6.42598C6.555 6.83898 1.6 12.052 1.6 18.4C1.6 25.018 6.982 30.4 13.6 30.4C19.947 30.4 25.16 25.445 25.574 19.2H13.6C13.158 19.2 12.8 18.842 12.8 18.4V6.42598ZM29.6 16H16.8C16.358 16 16 15.642 16 15.2V2.39998C16 1.95798 16.358 1.59998 16.8 1.59998C20.432 1.59998 23.848 3.01398 26.416 5.58398C28.984 8.15398 30.4 11.568 30.4 15.2C30.4 15.642 30.042 16 29.6 16ZM17.6 14.4H28.774C28.379 8.41897 23.58 3.62198 17.6 3.22598V14.4Z" fill="#5BAEDC"/>
</svg>
