<svg width="32" height="32" viewBox="0 0 32 32" fill="none" xmlns="http://www.w3.org/2000/svg">
<path d="M30.24 11.5199L25.44 5.11994C25.317 4.95494 25.134 4.84494 24.931 4.81094L15.331 3.21094C15.245 3.19694 15.155 3.19694 15.069 3.21094L5.46904 4.81094C5.26604 4.84494 5.08304 4.95494 4.96004 5.11994L0.160037 11.5199C-0.0689629 11.8259 -0.0499629 12.2509 0.205037 12.5339L14.605 28.5339C14.757 28.7019 14.973 28.7999 15.2 28.7999C15.427 28.7999 15.643 28.7039 15.795 28.5339L30.195 12.5339C30.451 12.2489 30.47 11.8249 30.24 11.5199ZM20.458 11.1999L15.2 25.6589L9.94204 11.1999H20.458ZM10.731 9.59994L15.2 5.13094L19.669 9.59994H10.731ZM17.531 5.19994L23.448 6.18594L21.475 9.14394L17.529 5.19994H17.531ZM8.92504 9.14394L6.95204 6.18594L12.869 5.19994L8.92504 9.14394ZM7.47204 9.84994L2.69604 10.8049L5.56204 6.98394L7.47204 9.84994ZM8.28304 11.3199L13.041 24.4059L2.33404 12.5079L8.28304 11.3179V11.3199ZM22.117 11.3199L28.066 12.5099L17.359 24.4079L22.117 11.3219V11.3199ZM22.928 9.84994L24.838 6.98394L27.704 10.8049L22.928 9.84994Z" fill="#79B6D8"/>
</svg>
